<svg xmlns="http://www.w3.org/2000/svg" width="1024" height="1024" viewBox="0 0 1024 1024"><path d="M 657,1004 Z" fill="red" stroke="black" stroke-width="1"/><path d="M 620,983 Z" fill="red" stroke="black" stroke-width="1"/><path d="M 102,962 Z" fill="red" stroke="black" stroke-width="1"/><path d="M 180,956 L 181,956 Z" fill="red" stroke="black" stroke-width="1"/><path d="M 174,956 Z" fill="red" stroke="black" stroke-width="1"/><path d="M 191,955 L 192,955 Z" fill="red" stroke="black" stroke-width="1"/><path d="M 189,955 Z" fill="red" stroke="black" stroke-width="1"/><path d="M 155,955 Z" fill="red" stroke="black" stroke-width="1"/><path d="M 202,954 Z" fill="red" stroke="black" stroke-width="1"/><path d="M 148,954 Z" fill="red" stroke="black" stroke-width="1"/><path d="M 209,953 L 211,953 Z" fill="red" stroke="black" stroke-width="1"/><path d="M 216,952 L 217,952 Z" fill="red" stroke="black" stroke-width="1"/><path d="M 220,951 L 223,951 Z" fill="red" stroke="black" stroke-width="1"/><path d="M 834,950 Z" fill="red" stroke="black" stroke-width="1"/><path d="M 233,949 Z" fill="red" stroke="black" stroke-width="1"/><path d="M 231,949 Z" fill="red" stroke="black" stroke-width="1"/><path d="M 134,949 Z" fill="red" stroke="black" stroke-width="1"/><path d="M 236,948 Z" fill="red" stroke="black" stroke-width="1"/><path d="M 241,947 L 242,947 Z" fill="red" stroke="black" stroke-width="1"/><path d="M 245,946 Z" fill="red" stroke="black" stroke-width="1"/><path d="M 251,944 L 253,944 Z" fill="red" stroke="black" stroke-width="1"/><path d="M 274,941 Z" fill="red" stroke="black" stroke-width="1"/><path d="M 270,939 Z" fill="red" stroke="black" stroke-width="1"/><path d="M 273,938 Z" fill="red" stroke="black" stroke-width="1"/><path d="M 277,937 Z" fill="red" stroke="black" stroke-width="1"/><path d="M 275,937 Z" fill="red" stroke="black" stroke-width="1"/><path d="M 279,936 Z" fill="red" stroke="black" stroke-width="1"/><path d="M 281,935 Z" fill="red" stroke="black" stroke-width="1"/><path d="M 284,934 Z" fill="red" stroke="black" stroke-width="1"/><path d="M 129,934 L 129,936 Z" fill="red" stroke="black" stroke-width="1"/><path d="M 287,933 Z" fill="red" stroke="black" stroke-width="1"/><path d="M 129,932 Z" fill="red" stroke="black" stroke-width="1"/><path d="M 293,931 Z" fill="red" stroke="black" stroke-width="1"/><path d="M 846,930 Z" fill="red" stroke="black" stroke-width="1"/><path d="M 296,930 Z" fill="red" stroke="black" stroke-width="1"/><path d="M 301,928 Z" fill="red" stroke="black" stroke-width="1"/><path d="M 308,926 Z" fill="red" stroke="black" stroke-width="1"/><path d="M 131,925 Z" fill="red" stroke="black" stroke-width="1"/><path d="M 132,923 Z" fill="red" stroke="black" stroke-width="1"/><path d="M 316,922 Z" fill="red" stroke="black" stroke-width="1"/><path d="M 133,921 Z" fill="red" stroke="black" stroke-width="1"/><path d="M 328,917 L 327,918 L 326,918 L 327,918 Z" fill="red" stroke="black" stroke-width="1"/><path d="M 331,916 Z" fill="red" stroke="black" stroke-width="1"/><path d="M 620,914 Z" fill="red" stroke="black" stroke-width="1"/><path d="M 337,913 Z" fill="red" stroke="black" stroke-width="1"/><path d="M 340,912 Z" fill="red" stroke="black" stroke-width="1"/><path d="M 140,912 Z" fill="red" stroke="black" stroke-width="1"/><path d="M 344,910 L 343,911 L 342,911 L 343,911 Z" fill="red" stroke="black" stroke-width="1"/><path d="M 144,909 L 142,911 Z" fill="red" stroke="black" stroke-width="1"/><path d="M 348,908 Z" fill="red" stroke="black" stroke-width="1"/><path d="M 350,907 Z" fill="red" stroke="black" stroke-width="1"/><path d="M 146,906 L 147,906 Z" fill="red" stroke="black" stroke-width="1"/><path d="M 356,904 Z" fill="red" stroke="black" stroke-width="1"/><path d="M 149,904 Z" fill="red" stroke="black" stroke-width="1"/><path d="M 358,903 L 359,903 Z" fill="red" stroke="black" stroke-width="1"/><path d="M 373,900 Z" fill="red" stroke="black" stroke-width="1"/><path d="M 692,894 Z" fill="red" stroke="black" stroke-width="1"/><path d="M 163,893 Z" fill="red" stroke="black" stroke-width="1"/><path d="M 380,892 Z" fill="red" stroke="black" stroke-width="1"/><path d="M 976,890 Z" fill="red" stroke="black" stroke-width="1"/><path d="M 436,890 Z" fill="red" stroke="black" stroke-width="1"/><path d="M 167,888 L 168,888 Z" fill="red" stroke="black" stroke-width="1"/><path d="M 391,886 L 390,887 Z" fill="red" stroke="black" stroke-width="1"/><path d="M 398,882 Z" fill="red" stroke="black" stroke-width="1"/><path d="M 176,880 Z" fill="red" stroke="black" stroke-width="1"/><path d="M 172,880 Z" fill="red" stroke="black" stroke-width="1"/><path d="M 403,879 Z" fill="red" stroke="black" stroke-width="1"/><path d="M 180,878 Z" fill="red" stroke="black" stroke-width="1"/><path d="M 178,878 Z" fill="red" stroke="black" stroke-width="1"/><path d="M 25,878 Z" fill="red" stroke="black" stroke-width="1"/><path d="M 519,872 Z" fill="red" stroke="black" stroke-width="1"/><path d="M 185,872 L 185,873 L 182,876 L 186,872 Z" fill="red" stroke="black" stroke-width="1"/><path d="M 190,868 Z" fill="red" stroke="black" stroke-width="1"/><path d="M 810,866 Z" fill="red" stroke="black" stroke-width="1"/><path d="M 506,864 Z" fill="red" stroke="black" stroke-width="1"/><path d="M 434,860 Z" fill="red" stroke="black" stroke-width="1"/><path d="M 439,859 Z" fill="red" stroke="black" stroke-width="1"/><path d="M 201,856 Z" fill="red" stroke="black" stroke-width="1"/><path d="M 448,852 Z" fill="red" stroke="black" stroke-width="1"/><path d="M 454,847 L 455,847 Z" fill="red" stroke="black" stroke-width="1"/><path d="M 470,837 Z" fill="red" stroke="black" stroke-width="1"/><path d="M 478,830 Z" fill="red" stroke="black" stroke-width="1"/><path d="M 485,825 Z" fill="red" stroke="black" stroke-width="1"/><path d="M 231,825 Z" fill="red" stroke="black" stroke-width="1"/><path d="M 549,824 Z" fill="red" stroke="black" stroke-width="1"/><path d="M 241,816 L 240,817 Z" fill="red" stroke="black" stroke-width="1"/><path d="M 662,799 Z" fill="red" stroke="black" stroke-width="1"/><path d="M 269,785 Z" fill="red" stroke="black" stroke-width="1"/><path d="M 714,784 Z" fill="red" stroke="black" stroke-width="1"/><path d="M 535,784 Z" fill="red" stroke="black" stroke-width="1"/><path d="M 538,781 Z" fill="red" stroke="black" stroke-width="1"/><path d="M 275,778 L 274,779 Z" fill="red" stroke="black" stroke-width="1"/><path d="M 548,775 Z" fill="red" stroke="black" stroke-width="1"/><path d="M 276,775 L 276,776 L 277,776 Z" fill="red" stroke="black" stroke-width="1"/><path d="M 552,768 Z" fill="red" stroke="black" stroke-width="1"/><path d="M 284,768 Z" fill="red" stroke="black" stroke-width="1"/><path d="M 667,766 Z" fill="red" stroke="black" stroke-width="1"/><path d="M 288,763 Z" fill="red" stroke="black" stroke-width="1"/><path d="M 595,760 Z" fill="red" stroke="black" stroke-width="1"/><path d="M 292,758 Z" fill="red" stroke="black" stroke-width="1"/><path d="M 565,756 L 563,758 Z" fill="red" stroke="black" stroke-width="1"/><path d="M 567,754 Z" fill="red" stroke="black" stroke-width="1"/><path d="M 573,749 Z" fill="red" stroke="black" stroke-width="1"/><path d="M 299,749 L 298,750 Z" fill="red" stroke="black" stroke-width="1"/><path d="M 582,740 Z" fill="red" stroke="black" stroke-width="1"/><path d="M 307,738 Z" fill="red" stroke="black" stroke-width="1"/><path d="M 648,733 Z" fill="red" stroke="black" stroke-width="1"/><path d="M 316,726 Z" fill="red" stroke="black" stroke-width="1"/><path d="M 320,720 Z" fill="red" stroke="black" stroke-width="1"/><path d="M 603,719 L 604,719 Z" fill="red" stroke="black" stroke-width="1"/><path d="M 606,718 Z" fill="red" stroke="black" stroke-width="1"/><path d="M 322,717 Z" fill="red" stroke="black" stroke-width="1"/><path d="M 607,714 Z" fill="red" stroke="black" stroke-width="1"/><path d="M 610,713 Z" fill="red" stroke="black" stroke-width="1"/><path d="M 328,705 Z" fill="red" stroke="black" stroke-width="1"/><path d="M 332,702 Z" fill="red" stroke="black" stroke-width="1"/><path d="M 623,698 Z" fill="red" stroke="black" stroke-width="1"/><path d="M 623,696 Z" fill="red" stroke="black" stroke-width="1"/><path d="M 630,690 Z" fill="red" stroke="black" stroke-width="1"/><path d="M 339,690 Z" fill="red" stroke="black" stroke-width="1"/><path d="M 632,685 L 631,686 Z" fill="red" stroke="black" stroke-width="1"/><path d="M 634,683 Z" fill="red" stroke="black" stroke-width="1"/><path d="M 344,683 Z" fill="red" stroke="black" stroke-width="1"/><path d="M 643,671 Z" fill="red" stroke="black" stroke-width="1"/><path d="M 351,671 Z" fill="red" stroke="black" stroke-width="1"/><path d="M 646,667 Z" fill="red" stroke="black" stroke-width="1"/><path d="M 354,666 Z" fill="red" stroke="black" stroke-width="1"/><path d="M 648,665 Z" fill="red" stroke="black" stroke-width="1"/><path d="M 651,661 Z" fill="red" stroke="black" stroke-width="1"/><path d="M 358,659 Z" fill="red" stroke="black" stroke-width="1"/><path d="M 360,656 Z" fill="red" stroke="black" stroke-width="1"/><path d="M 656,654 Z" fill="red" stroke="black" stroke-width="1"/><path d="M 361,651 Z" fill="red" stroke="black" stroke-width="1"/><path d="M 364,648 Z" fill="red" stroke="black" stroke-width="1"/><path d="M 367,642 Z" fill="red" stroke="black" stroke-width="1"/><path d="M 368,640 Z" fill="red" stroke="black" stroke-width="1"/><path d="M 368,638 Z" fill="red" stroke="black" stroke-width="1"/><path d="M 370,637 Z" fill="red" stroke="black" stroke-width="1"/><path d="M 371,633 Z" fill="red" stroke="black" stroke-width="1"/><path d="M 672,632 Z" fill="red" stroke="black" stroke-width="1"/><path d="M 373,630 L 373,631 Z" fill="red" stroke="black" stroke-width="1"/><path d="M 376,625 L 375,626 L 375,627 L 375,626 Z" fill="red" stroke="black" stroke-width="1"/><path d="M 678,623 Z" fill="red" stroke="black" stroke-width="1"/><path d="M 108,623 Z" fill="red" stroke="black" stroke-width="1"/><path d="M 378,620 Z" fill="red" stroke="black" stroke-width="1"/><path d="M 687,610 L 687,611 Z" fill="red" stroke="black" stroke-width="1"/><path d="M 378,606 Z" fill="red" stroke="black" stroke-width="1"/><path d="M 385,605 Z" fill="red" stroke="black" stroke-width="1"/><path d="M 693,601 Z" fill="red" stroke="black" stroke-width="1"/><path d="M 868,600 Z" fill="red" stroke="black" stroke-width="1"/><path d="M 843,600 Z" fill="red" stroke="black" stroke-width="1"/><path d="M 390,593 L 390,594 Z" fill="red" stroke="black" stroke-width="1"/><path d="M 393,586 L 393,587 Z" fill="red" stroke="black" stroke-width="1"/><path d="M 703,585 Z" fill="red" stroke="black" stroke-width="1"/><path d="M 705,581 Z" fill="red" stroke="black" stroke-width="1"/><path d="M 395,579 Z" fill="red" stroke="black" stroke-width="1"/><path d="M 397,577 Z" fill="red" stroke="black" stroke-width="1"/><path d="M 708,576 Z" fill="red" stroke="black" stroke-width="1"/><path d="M 804,572 Z" fill="red" stroke="black" stroke-width="1"/><path d="M 711,571 L 711,572 L 709,574 L 711,572 Z" fill="red" stroke="black" stroke-width="1"/><path d="M 399,571 L 399,572 Z" fill="red" stroke="black" stroke-width="1"/><path d="M 400,569 Z" fill="red" stroke="black" stroke-width="1"/><path d="M 713,568 Z" fill="red" stroke="black" stroke-width="1"/><path d="M 714,566 Z" fill="red" stroke="black" stroke-width="1"/><path d="M 401,566 Z" fill="red" stroke="black" stroke-width="1"/><path d="M 715,564 Z" fill="red" stroke="black" stroke-width="1"/><path d="M 402,564 Z" fill="red" stroke="black" stroke-width="1"/><path d="M 716,562 Z" fill="red" stroke="black" stroke-width="1"/><path d="M 401,562 Z" fill="red" stroke="black" stroke-width="1"/><path d="M 717,560 Z" fill="red" stroke="black" stroke-width="1"/><path d="M 404,558 Z" fill="red" stroke="black" stroke-width="1"/><path d="M 720,555 L 719,556 Z" fill="red" stroke="black" stroke-width="1"/><path d="M 406,552 L 406,553 L 405,554 L 405,555 L 405,554 L 406,553 Z" fill="red" stroke="black" stroke-width="1"/><path d="M 407,549 Z" fill="red" stroke="black" stroke-width="1"/><path d="M 724,547 Z" fill="red" stroke="black" stroke-width="1"/><path d="M 408,547 Z" fill="red" stroke="black" stroke-width="1"/><path d="M 725,545 Z" fill="red" stroke="black" stroke-width="1"/><path d="M 409,544 Z" fill="red" stroke="black" stroke-width="1"/><path d="M 410,542 Z" fill="red" stroke="black" stroke-width="1"/><path d="M 728,539 L 728,540 L 727,541 L 728,540 Z" fill="red" stroke="black" stroke-width="1"/><path d="M 411,538 L 411,539 Z" fill="red" stroke="black" stroke-width="1"/><path d="M 412,535 Z" fill="red" stroke="black" stroke-width="1"/><path d="M 731,533 Z" fill="red" stroke="black" stroke-width="1"/><path d="M 732,531 Z" fill="red" stroke="black" stroke-width="1"/><path d="M 734,527 Z" fill="red" stroke="black" stroke-width="1"/><path d="M 414,527 Z" fill="red" stroke="black" stroke-width="1"/><path d="M 43,523 Z" fill="red" stroke="black" stroke-width="1"/><path d="M 416,522 Z" fill="red" stroke="black" stroke-width="1"/><path d="M 417,518 Z" fill="red" stroke="black" stroke-width="1"/><path d="M 739,516 Z" fill="red" stroke="black" stroke-width="1"/><path d="M 418,515 L 418,516 Z" fill="red" stroke="black" stroke-width="1"/><path d="M 757,512 Z" fill="red" stroke="black" stroke-width="1"/><path d="M 419,512 Z" fill="red" stroke="black" stroke-width="1"/><path d="M 741,511 Z" fill="red" stroke="black" stroke-width="1"/><path d="M 743,507 Z" fill="red" stroke="black" stroke-width="1"/><path d="M 421,505 Z" fill="red" stroke="black" stroke-width="1"/><path d="M 744,504 Z" fill="red" stroke="black" stroke-width="1"/><path d="M 745,502 Z" fill="red" stroke="black" stroke-width="1"/><path d="M 796,501 Z" fill="red" stroke="black" stroke-width="1"/><path d="M 746,500 Z" fill="red" stroke="black" stroke-width="1"/><path d="M 422,500 L 422,501 Z" fill="red" stroke="black" stroke-width="1"/><path d="M 424,495 Z" fill="red" stroke="black" stroke-width="1"/><path d="M 748,493 Z" fill="red" stroke="black" stroke-width="1"/><path d="M 426,486 Z" fill="red" stroke="black" stroke-width="1"/><path d="M 752,483 Z" fill="red" stroke="black" stroke-width="1"/><path d="M 427,483 Z" fill="red" stroke="black" stroke-width="1"/><path d="M 754,477 Z" fill="red" stroke="black" stroke-width="1"/><path d="M 755,474 L 755,475 Z" fill="red" stroke="black" stroke-width="1"/><path d="M 429,474 L 429,475 Z" fill="red" stroke="black" stroke-width="1"/><path d="M 756,472 Z" fill="red" stroke="black" stroke-width="1"/><path d="M 758,468 L 759,468 Z" fill="red" stroke="black" stroke-width="1"/><path d="M 431,468 Z" fill="red" stroke="black" stroke-width="1"/><path d="M 758,466 Z" fill="red" stroke="black" stroke-width="1"/><path d="M 432,463 L 432,465 Z" fill="red" stroke="black" stroke-width="1"/><path d="M 433,460 Z" fill="red" stroke="black" stroke-width="1"/><path d="M 760,459 L 760,461 L 759,462 L 759,463 L 759,462 L 760,461 Z" fill="red" stroke="black" stroke-width="1"/><path d="M 762,453 Z" fill="red" stroke="black" stroke-width="1"/><path d="M 392,452 Z" fill="red" stroke="black" stroke-width="1"/><path d="M 763,449 Z" fill="red" stroke="black" stroke-width="1"/><path d="M 436,446 L 436,448 Z" fill="red" stroke="black" stroke-width="1"/><path d="M 437,442 L 437,443 Z" fill="red" stroke="black" stroke-width="1"/><path d="M 765,441 L 765,442 Z" fill="red" stroke="black" stroke-width="1"/><path d="M 438,439 Z" fill="red" stroke="black" stroke-width="1"/><path d="M 768,432 L 767,433 L 767,436 L 766,437 L 766,438 L 766,437 L 767,436 L 767,435 L 768,434 Z" fill="red" stroke="black" stroke-width="1"/><path d="M 231,432 Z" fill="red" stroke="black" stroke-width="1"/><path d="M 439,430 Z" fill="red" stroke="black" stroke-width="1"/><path d="M 769,426 Z" fill="red" stroke="black" stroke-width="1"/><path d="M 440,426 Z" fill="red" stroke="black" stroke-width="1"/><path d="M 769,424 Z" fill="red" stroke="black" stroke-width="1"/><path d="M 770,419 L 770,420 Z" fill="red" stroke="black" stroke-width="1"/><path d="M 442,419 L 442,421 Z" fill="red" stroke="black" stroke-width="1"/><path d="M 771,417 Z" fill="red" stroke="black" stroke-width="1"/><path d="M 443,417 Z" fill="red" stroke="black" stroke-width="1"/><path d="M 327,417 Z" fill="red" stroke="black" stroke-width="1"/><path d="M 771,412 L 771,413 Z" fill="red" stroke="black" stroke-width="1"/><path d="M 772,410 Z" fill="red" stroke="black" stroke-width="1"/><path d="M 444,410 L 444,411 Z" fill="red" stroke="black" stroke-width="1"/><path d="M 445,407 Z" fill="red" stroke="black" stroke-width="1"/><path d="M 775,404 Z" fill="red" stroke="black" stroke-width="1"/><path d="M 772,404 Z" fill="red" stroke="black" stroke-width="1"/><path d="M 446,401 Z" fill="red" stroke="black" stroke-width="1"/><path d="M 215,396 Z" fill="red" stroke="black" stroke-width="1"/><path d="M 448,392 L 448,393 Z" fill="red" stroke="black" stroke-width="1"/><path d="M 449,389 L 449,390 Z" fill="red" stroke="black" stroke-width="1"/><path d="M 450,386 Z" fill="red" stroke="black" stroke-width="1"/><path d="M 450,382 Z" fill="red" stroke="black" stroke-width="1"/><path d="M 773,377 L 773,395 Z" fill="red" stroke="black" stroke-width="1"/><path d="M 450,375 Z" fill="red" stroke="black" stroke-width="1"/><path d="M 448,375 Z" fill="red" stroke="black" stroke-width="1"/><path d="M 452,374 Z" fill="red" stroke="black" stroke-width="1"/><path d="M 23,373 Z" fill="red" stroke="black" stroke-width="1"/><path d="M 772,368 L 772,370 Z" fill="red" stroke="black" stroke-width="1"/><path d="M 454,366 L 454,367 Z" fill="red" stroke="black" stroke-width="1"/><path d="M 455,362 L 455,363 Z" fill="red" stroke="black" stroke-width="1"/><path d="M 771,361 L 771,362 Z" fill="red" stroke="black" stroke-width="1"/><path d="M 392,361 Z" fill="red" stroke="black" stroke-width="1"/><path d="M 358,361 Z" fill="red" stroke="black" stroke-width="1"/><path d="M 132,356 Z" fill="red" stroke="black" stroke-width="1"/><path d="M 769,353 Z" fill="red" stroke="black" stroke-width="1"/><path d="M 768,350 L 768,351 Z" fill="red" stroke="black" stroke-width="1"/><path d="M 459,349 Z" fill="red" stroke="black" stroke-width="1"/><path d="M 767,347 Z" fill="red" stroke="black" stroke-width="1"/><path d="M 71,343 Z" fill="red" stroke="black" stroke-width="1"/><path d="M 461,342 L 461,343 Z" fill="red" stroke="black" stroke-width="1"/><path d="M 764,340 Z" fill="red" stroke="black" stroke-width="1"/><path d="M 462,338 L 462,339 Z" fill="red" stroke="black" stroke-width="1"/><path d="M 763,337 Z" fill="red" stroke="black" stroke-width="1"/><path d="M 464,334 Z" fill="red" stroke="black" stroke-width="1"/><path d="M 763,333 Z" fill="red" stroke="black" stroke-width="1"/><path d="M 466,328 Z" fill="red" stroke="black" stroke-width="1"/><path d="M 468,323 Z" fill="red" stroke="black" stroke-width="1"/><path d="M 183,320 Z" fill="red" stroke="black" stroke-width="1"/><path d="M 766,319 L 765,320 L 765,321 L 765,320 Z" fill="red" stroke="black" stroke-width="1"/><path d="M 472,314 Z" fill="red" stroke="black" stroke-width="1"/><path d="M 475,308 Z" fill="red" stroke="black" stroke-width="1"/><path d="M 476,306 Z" fill="red" stroke="black" stroke-width="1"/><path d="M 372,303 Z" fill="red" stroke="black" stroke-width="1"/><path d="M 759,301 Z" fill="red" stroke="black" stroke-width="1"/><path d="M 480,299 Z" fill="red" stroke="black" stroke-width="1"/><path d="M 321,297 Z" fill="red" stroke="black" stroke-width="1"/><path d="M 483,294 Z" fill="red" stroke="black" stroke-width="1"/><path d="M 755,293 L 756,294 L 756,295 L 756,294 Z" fill="red" stroke="black" stroke-width="1"/><path d="M 754,291 Z" fill="red" stroke="black" stroke-width="1"/><path d="M 751,286 Z" fill="red" stroke="black" stroke-width="1"/><path d="M 491,283 Z" fill="red" stroke="black" stroke-width="1"/><path d="M 491,281 Z" fill="red" stroke="black" stroke-width="1"/><path d="M 747,280 Z" fill="red" stroke="black" stroke-width="1"/><path d="M 496,277 L 495,278 Z" fill="red" stroke="black" stroke-width="1"/><path d="M 497,275 Z" fill="red" stroke="black" stroke-width="1"/><path d="M 496,272 Z" fill="red" stroke="black" stroke-width="1"/><path d="M 480,272 Z" fill="red" stroke="black" stroke-width="1"/><path d="M 740,271 Z" fill="red" stroke="black" stroke-width="1"/><path d="M 504,268 Z" fill="red" stroke="black" stroke-width="1"/><path d="M 738,267 L 738,268 Z" fill="red" stroke="black" stroke-width="1"/><path d="M 507,266 Z" fill="red" stroke="black" stroke-width="1"/><path d="M 728,253 Z" fill="red" stroke="black" stroke-width="1"/><path d="M 530,250 L 529,251 Z" fill="red" stroke="black" stroke-width="1"/><path d="M 535,248 Z" fill="red" stroke="black" stroke-width="1"/><path d="M 723,245 Z" fill="red" stroke="black" stroke-width="1"/><path d="M 545,242 L 545,243 Z" fill="red" stroke="black" stroke-width="1"/><path d="M 721,240 Z" fill="red" stroke="black" stroke-width="1"/><path d="M 718,230 L 718,231 Z" fill="red" stroke="black" stroke-width="1"/><path d="M 569,223 Z" fill="red" stroke="black" stroke-width="1"/><path d="M 716,220 Z" fill="red" stroke="black" stroke-width="1"/><path d="M 716,214 L 716,216 Z" fill="red" stroke="black" stroke-width="1"/><path d="M 762,207 Z" fill="red" stroke="black" stroke-width="1"/><path d="M 643,192 Z" fill="red" stroke="black" stroke-width="1"/><path d="M 925,185 Z" fill="red" stroke="black" stroke-width="1"/><path d="M 720,184 L 720,185 Z" fill="red" stroke="black" stroke-width="1"/><path d="M 726,166 Z" fill="red" stroke="black" stroke-width="1"/><path d="M 139,165 Z" fill="red" stroke="black" stroke-width="1"/><path d="M 969,137 Z" fill="red" stroke="black" stroke-width="1"/><path d="M 750,129 Z" fill="red" stroke="black" stroke-width="1"/><path d="M 864,126 Z" fill="red" stroke="black" stroke-width="1"/><path d="M 687,124 Z" fill="red" stroke="black" stroke-width="1"/><path d="M 771,114 Z" fill="red" stroke="black" stroke-width="1"/><path d="M 778,111 Z" fill="red" stroke="black" stroke-width="1"/><path d="M 781,110 Z" fill="red" stroke="black" stroke-width="1"/><path d="M 784,109 Z" fill="red" stroke="black" stroke-width="1"/><path d="M 789,108 L 791,108 Z" fill="red" stroke="black" stroke-width="1"/><path d="M 799,107 Z" fill="red" stroke="black" stroke-width="1"/><path d="M 794,107 L 797,107 Z" fill="red" stroke="black" stroke-width="1"/><path d="M 811,106 Z" fill="red" stroke="black" stroke-width="1"/><path d="M 808,106 L 809,106 Z" fill="red" stroke="black" stroke-width="1"/><path d="M 805,106 L 806,106 Z" fill="red" stroke="black" stroke-width="1"/><path d="M 815,105 Z" fill="red" stroke="black" stroke-width="1"/><path d="M 819,104 Z" fill="red" stroke="black" stroke-width="1"/><path d="M 181,102 Z" fill="red" stroke="black" stroke-width="1"/><path d="M 832,90 Z" fill="red" stroke="black" stroke-width="1"/><path d="M 270,87 Z" fill="red" stroke="black" stroke-width="1"/><path d="M 833,82 L 833,84 Z" fill="red" stroke="black" stroke-width="1"/><path d="M 832,78 Z" fill="red" stroke="black" stroke-width="1"/><path d="M 828,70 Z" fill="red" stroke="black" stroke-width="1"/><path d="M 766,60 Z" fill="red" stroke="black" stroke-width="1"/><path d="M 787,58 L 786,59 L 778,59 L 777,60 L 772,60 L 771,61 L 769,61 L 768,62 L 765,62 L 764,63 L 763,63 L 762,64 L 760,64 L 759,65 L 757,65 L 756,66 L 755,66 L 754,67 L 753,67 L 752,68 L 751,68 L 750,69 L 749,69 L 748,70 L 747,70 L 746,71 L 745,71 L 744,72 L 743,72 L 741,74 L 740,74 L 739,75 L 738,75 L 736,77 L 735,77 L 732,80 L 731,80 L 728,83 L 727,83 L 721,89 L 720,89 L 705,104 L 705,105 L 698,112 L 698,113 L 695,116 L 695,117 L 692,120 L 692,121 L 689,124 L 689,125 L 686,128 L 686,129 L 684,131 L 684,132 L 683,133 L 683,134 L 681,136 L 681,137 L 679,139 L 679,140 L 678,141 L 678,142 L 676,144 L 676,145 L 675,146 L 675,147 L 673,149 L 673,150 L 672,151 L 672,152 L 671,153 L 671,154 L 670,155 L 670,156 L 669,157 L 669,158 L 668,159 L 668,160 L 666,162 L 666,163 L 665,164 L 665,165 L 664,166 L 664,167 L 663,168 L 663,169 L 662,170 L 662,171 L 660,173 L 660,174 L 658,176 L 658,177 L 656,179 L 656,180 L 653,183 L 653,184 L 651,186 L 651,187 L 645,193 L 645,194 L 639,200 L 638,200 L 633,205 L 632,205 L 630,207 L 629,207 L 627,209 L 626,209 L 625,210 L 624,210 L 623,211 L 622,211 L 621,212 L 620,212 L 619,213 L 618,213 L 617,214 L 616,214 L 615,215 L 613,215 L 612,216 L 611,216 L 610,217 L 608,217 L 607,218 L 604,218 L 603,219 L 599,219 L 598,220 L 594,220 L 593,221 L 590,221 L 589,222 L 585,222 L 584,223 L 577,223 L 576,224 L 572,224 L 571,225 L 569,225 L 568,226 L 566,226 L 565,227 L 564,227 L 563,228 L 562,228 L 561,229 L 560,229 L 559,230 L 558,230 L 556,232 L 555,232 L 548,239 L 548,240 L 547,241 L 547,243 L 548,244 L 547,245 L 546,245 L 545,246 L 544,246 L 543,247 L 541,247 L 540,248 L 539,248 L 538,249 L 537,249 L 536,250 L 535,250 L 534,251 L 533,251 L 532,252 L 531,252 L 530,253 L 529,253 L 528,254 L 527,254 L 526,255 L 525,255 L 523,257 L 522,257 L 520,259 L 519,259 L 517,261 L 516,261 L 513,264 L 512,264 L 503,273 L 502,273 L 501,272 L 502,273 L 502,274 L 494,282 L 494,283 L 491,286 L 491,287 L 488,290 L 488,291 L 486,293 L 486,294 L 484,296 L 484,297 L 483,298 L 483,299 L 481,301 L 481,302 L 480,303 L 480,304 L 478,306 L 478,307 L 477,308 L 477,309 L 476,310 L 476,311 L 475,312 L 475,313 L 474,314 L 474,315 L 473,316 L 473,317 L 472,318 L 472,320 L 471,321 L 471,322 L 470,323 L 470,324 L 469,325 L 469,327 L 468,328 L 468,329 L 467,330 L 467,332 L 466,333 L 466,335 L 465,336 L 465,338 L 464,339 L 464,341 L 463,342 L 463,344 L 462,345 L 462,348 L 461,349 L 461,351 L 460,352 L 460,355 L 459,356 L 459,358 L 458,359 L 458,362 L 457,363 L 457,366 L 456,367 L 456,370 L 455,371 L 455,374 L 454,375 L 454,378 L 453,379 L 453,382 L 452,383 L 452,387 L 451,388 L 451,391 L 450,392 L 450,395 L 449,396 L 449,400 L 448,401 L 448,405 L 447,406 L 447,409 L 446,410 L 446,414 L 445,415 L 445,418 L 444,419 L 444,423 L 443,424 L 443,427 L 442,428 L 442,432 L 441,433 L 441,436 L 440,437 L 440,441 L 439,442 L 439,445 L 438,446 L 438,449 L 437,450 L 437,453 L 436,454 L 436,457 L 435,458 L 435,461 L 434,462 L 434,466 L 433,467 L 433,469 L 432,470 L 432,474 L 431,475 L 431,477 L 430,478 L 429,477 L 430,478 L 430,482 L 429,483 L 429,485 L 428,486 L 428,489 L 427,490 L 427,493 L 426,494 L 426,497 L 425,498 L 425,500 L 424,501 L 424,504 L 423,505 L 423,507 L 422,508 L 422,511 L 421,512 L 421,514 L 420,515 L 420,517 L 419,518 L 419,521 L 418,522 L 418,524 L 417,525 L 417,527 L 416,528 L 416,531 L 415,532 L 415,534 L 414,535 L 414,537 L 413,538 L 413,540 L 412,541 L 412,543 L 411,544 L 411,546 L 410,547 L 410,549 L 409,550 L 409,551 L 408,552 L 408,554 L 407,555 L 407,557 L 406,558 L 406,560 L 405,561 L 405,563 L 404,564 L 404,565 L 403,566 L 403,568 L 402,569 L 402,571 L 401,572 L 401,573 L 400,574 L 400,576 L 399,577 L 399,578 L 398,579 L 398,581 L 397,582 L 397,583 L 396,584 L 396,586 L 395,587 L 395,588 L 394,589 L 394,590 L 393,591 L 393,593 L 392,594 L 392,595 L 391,596 L 391,597 L 390,598 L 390,600 L 389,601 L 389,602 L 388,603 L 388,604 L 387,605 L 387,606 L 386,607 L 386,609 L 384,611 L 384,613 L 383,614 L 383,615 L 382,616 L 382,617 L 381,618 L 381,619 L 380,620 L 380,621 L 379,622 L 379,623 L 378,624 L 378,626 L 377,627 L 377,628 L 376,629 L 376,630 L 375,631 L 375,632 L 374,633 L 374,634 L 373,635 L 373,636 L 372,637 L 372,638 L 371,639 L 371,640 L 370,641 L 370,642 L 368,644 L 368,645 L 367,646 L 367,647 L 366,648 L 366,649 L 365,650 L 365,651 L 364,652 L 364,653 L 363,654 L 363,655 L 362,656 L 362,657 L 361,658 L 361,659 L 359,661 L 359,662 L 358,663 L 358,664 L 357,665 L 357,666 L 355,668 L 355,669 L 354,670 L 354,671 L 352,673 L 352,674 L 351,675 L 351,676 L 350,677 L 350,678 L 348,680 L 348,681 L 347,682 L 347,683 L 345,685 L 345,686 L 343,688 L 343,689 L 342,690 L 342,691 L 340,693 L 340,694 L 338,696 L 338,697 L 337,698 L 337,699 L 335,701 L 335,702 L 333,704 L 333,705 L 332,706 L 332,707 L 329,710 L 329,711 L 328,712 L 328,713 L 326,715 L 326,716 L 323,719 L 323,720 L 321,722 L 321,723 L 318,726 L 318,727 L 316,729 L 316,730 L 313,733 L 313,734 L 310,737 L 310,738 L 308,740 L 308,741 L 304,745 L 304,746 L 301,749 L 301,750 L 298,753 L 298,754 L 294,758 L 294,759 L 290,763 L 290,764 L 286,768 L 286,769 L 281,774 L 281,775 L 274,782 L 274,783 L 267,790 L 267,791 L 258,800 L 257,799 L 258,800 L 258,801 L 247,812 L 247,813 L 235,825 L 234,824 L 235,825 L 234,826 L 234,827 L 212,849 L 211,848 L 212,849 L 209,852 L 208,851 L 209,852 L 200,861 L 200,862 L 199,863 L 198,863 L 181,880 L 180,880 L 171,889 L 170,889 L 168,891 L 167,890 L 168,891 L 164,895 L 163,895 L 158,900 L 157,900 L 156,899 L 157,900 L 150,907 L 149,907 L 138,918 L 137,917 L 136,917 L 135,918 L 136,917 L 137,917 L 138,918 L 137,919 L 137,920 L 134,923 L 134,924 L 133,925 L 133,926 L 132,927 L 132,929 L 131,930 L 131,938 L 132,939 L 132,940 L 133,941 L 133,942 L 134,943 L 134,944 L 138,948 L 139,948 L 141,950 L 142,950 L 143,951 L 146,951 L 147,952 L 152,952 L 153,953 L 173,953 L 174,954 L 175,953 L 195,953 L 196,952 L 203,952 L 204,951 L 211,951 L 212,950 L 217,950 L 218,949 L 223,949 L 224,948 L 227,948 L 228,947 L 232,947 L 233,946 L 237,946 L 238,945 L 241,945 L 242,944 L 245,944 L 246,943 L 249,943 L 250,942 L 253,942 L 254,941 L 256,941 L 257,940 L 260,940 L 261,939 L 263,939 L 264,938 L 267,938 L 268,937 L 270,937 L 271,936 L 273,936 L 274,935 L 276,935 L 277,934 L 279,934 L 280,933 L 282,933 L 283,932 L 284,932 L 285,931 L 287,931 L 288,930 L 290,930 L 291,929 L 293,929 L 294,928 L 296,928 L 297,927 L 298,927 L 299,926 L 301,926 L 302,925 L 304,925 L 305,926 L 304,925 L 305,924 L 306,924 L 307,923 L 309,923 L 310,922 L 311,922 L 312,921 L 314,921 L 315,920 L 316,920 L 317,919 L 319,919 L 320,920 L 319,921 L 320,920 L 321,920 L 320,920 L 319,919 L 320,918 L 321,918 L 322,917 L 323,917 L 324,916 L 326,916 L 327,915 L 328,915 L 329,914 L 330,914 L 331,913 L 333,913 L 334,912 L 335,912 L 336,911 L 337,911 L 338,910 L 339,910 L 340,909 L 342,909 L 343,908 L 344,908 L 345,907 L 346,907 L 347,906 L 348,906 L 349,905 L 350,905 L 351,904 L 352,904 L 353,903 L 354,903 L 355,902 L 356,902 L 357,901 L 358,901 L 359,900 L 360,900 L 361,899 L 363,899 L 364,900 L 363,899 L 365,897 L 366,897 L 367,896 L 368,896 L 369,895 L 370,895 L 371,894 L 372,894 L 373,893 L 374,893 L 375,892 L 376,892 L 377,891 L 378,891 L 379,890 L 380,890 L 381,889 L 382,889 L 383,890 L 382,891 L 383,890 L 384,890 L 383,890 L 382,889 L 384,887 L 385,887 L 386,886 L 387,886 L 388,885 L 389,885 L 390,884 L 391,884 L 393,882 L 394,882 L 395,881 L 396,881 L 397,880 L 398,880 L 400,878 L 401,878 L 402,877 L 403,877 L 404,876 L 405,876 L 407,874 L 408,874 L 409,873 L 410,873 L 412,871 L 413,871 L 414,870 L 415,870 L 416,871 L 415,872 L 416,871 L 415,870 L 417,868 L 418,868 L 419,867 L 420,867 L 422,865 L 423,865 L 425,863 L 426,863 L 427,862 L 428,862 L 429,863 L 428,862 L 430,860 L 431,860 L 432,861 L 431,860 L 433,858 L 434,858 L 436,856 L 437,856 L 438,855 L 439,855 L 440,856 L 439,855 L 441,853 L 442,853 L 444,851 L 445,851 L 447,849 L 448,849 L 450,847 L 451,847 L 452,848 L 451,847 L 453,845 L 454,845 L 457,842 L 458,842 L 460,840 L 461,840 L 463,838 L 464,838 L 467,835 L 468,835 L 470,833 L 471,833 L 474,830 L 475,830 L 478,827 L 479,827 L 482,824 L 483,824 L 485,822 L 486,822 L 489,819 L 490,819 L 494,815 L 495,815 L 499,811 L 500,811 L 504,807 L 505,807 L 510,802 L 511,802 L 516,797 L 517,797 L 518,798 L 517,799 L 518,798 L 517,797 L 523,791 L 524,791 L 525,792 L 524,791 L 530,785 L 531,785 L 541,775 L 542,775 L 552,765 L 553,765 L 566,752 L 567,752 L 569,750 L 570,751 L 569,750 L 601,718 L 601,717 L 611,707 L 612,708 L 611,707 L 611,706 L 617,700 L 617,699 L 623,693 L 623,692 L 627,688 L 627,687 L 632,682 L 632,681 L 636,677 L 636,676 L 640,672 L 640,671 L 644,667 L 644,666 L 647,663 L 647,662 L 650,659 L 650,658 L 653,655 L 653,654 L 656,651 L 656,650 L 659,647 L 659,646 L 661,644 L 661,643 L 664,640 L 664,639 L 667,636 L 667,635 L 669,633 L 669,632 L 672,629 L 672,628 L 674,626 L 674,625 L 676,623 L 676,622 L 678,620 L 678,619 L 680,617 L 680,616 L 683,613 L 683,612 L 685,610 L 685,609 L 687,607 L 687,606 L 688,605 L 688,604 L 690,602 L 690,601 L 692,599 L 692,598 L 693,597 L 693,596 L 695,594 L 695,593 L 697,591 L 697,590 L 698,589 L 698,588 L 700,586 L 700,585 L 702,583 L 702,582 L 703,581 L 703,580 L 704,579 L 704,578 L 706,576 L 706,575 L 707,574 L 707,573 L 708,572 L 708,571 L 709,570 L 709,569 L 711,567 L 711,566 L 712,565 L 712,564 L 714,562 L 714,561 L 715,560 L 715,559 L 716,558 L 716,557 L 717,556 L 717,555 L 719,553 L 719,552 L 720,551 L 720,550 L 721,549 L 721,548 L 722,547 L 722,546 L 723,545 L 723,544 L 724,543 L 724,542 L 725,541 L 725,540 L 726,539 L 726,538 L 727,537 L 727,536 L 728,535 L 728,534 L 729,533 L 729,532 L 730,531 L 730,530 L 731,529 L 731,527 L 732,526 L 732,525 L 733,524 L 733,523 L 734,522 L 734,521 L 735,520 L 735,519 L 736,518 L 736,517 L 737,516 L 737,514 L 738,513 L 738,512 L 739,511 L 739,509 L 740,508 L 740,507 L 741,506 L 741,504 L 742,503 L 742,502 L 743,501 L 743,499 L 744,498 L 744,497 L 745,496 L 745,494 L 746,493 L 746,492 L 747,491 L 747,489 L 748,488 L 748,486 L 749,485 L 749,484 L 750,483 L 750,481 L 751,480 L 751,478 L 752,477 L 752,476 L 753,475 L 753,473 L 754,472 L 754,470 L 755,469 L 755,467 L 756,466 L 756,464 L 757,463 L 757,461 L 758,460 L 758,458 L 759,457 L 759,455 L 760,454 L 760,451 L 761,450 L 761,448 L 762,447 L 762,444 L 763,443 L 763,440 L 764,439 L 764,436 L 765,435 L 765,432 L 766,431 L 766,427 L 767,426 L 767,421 L 768,420 L 768,416 L 769,415 L 769,408 L 770,407 L 770,398 L 771,397 L 771,377 L 770,376 L 770,368 L 769,367 L 769,362 L 768,361 L 768,357 L 767,356 L 767,353 L 766,352 L 766,350 L 765,349 L 765,347 L 764,346 L 764,345 L 763,344 L 763,342 L 762,341 L 762,340 L 761,339 L 761,338 L 760,337 L 760,334 L 761,333 L 761,331 L 762,330 L 762,317 L 761,316 L 761,312 L 760,311 L 760,309 L 759,308 L 759,306 L 758,305 L 758,304 L 757,303 L 757,301 L 756,300 L 756,299 L 755,298 L 755,297 L 754,296 L 754,295 L 753,294 L 753,293 L 751,291 L 751,290 L 750,289 L 750,288 L 748,286 L 748,285 L 746,283 L 746,282 L 743,279 L 743,278 L 741,276 L 741,275 L 737,271 L 737,270 L 734,267 L 734,266 L 732,264 L 732,263 L 730,261 L 730,260 L 728,258 L 728,257 L 727,256 L 727,255 L 725,253 L 725,252 L 723,250 L 723,249 L 722,248 L 722,247 L 721,246 L 721,245 L 720,244 L 720,243 L 719,242 L 719,241 L 718,240 L 718,238 L 717,237 L 717,235 L 716,234 L 716,231 L 715,230 L 715,225 L 714,224 L 714,202 L 715,201 L 715,196 L 716,195 L 716,191 L 717,190 L 717,186 L 718,185 L 718,182 L 719,181 L 719,179 L 720,178 L 720,176 L 721,175 L 721,173 L 722,172 L 722,170 L 723,169 L 723,167 L 724,166 L 724,165 L 725,164 L 725,162 L 726,161 L 726,160 L 727,159 L 727,158 L 728,157 L 728,156 L 729,155 L 729,154 L 730,153 L 730,152 L 731,151 L 731,150 L 732,149 L 732,148 L 733,147 L 733,146 L 735,144 L 735,143 L 737,141 L 737,140 L 741,136 L 741,135 L 752,124 L 753,124 L 758,119 L 759,119 L 761,117 L 762,117 L 764,115 L 765,115 L 766,114 L 767,114 L 768,113 L 769,113 L 770,112 L 771,112 L 772,111 L 773,111 L 774,110 L 775,110 L 776,109 L 778,109 L 779,108 L 781,108 L 782,107 L 785,107 L 786,106 L 790,106 L 791,105 L 798,105 L 799,104 L 809,104 L 810,103 L 816,103 L 817,102 L 819,102 L 820,101 L 821,101 L 823,99 L 824,99 L 827,96 L 827,95 L 828,94 L 828,93 L 829,92 L 829,91 L 830,90 L 830,86 L 831,85 L 831,83 L 830,82 L 830,78 L 829,77 L 829,75 L 827,73 L 827,72 L 823,68 L 822,68 L 820,66 L 819,66 L 818,65 L 817,65 L 816,64 L 815,64 L 814,63 L 813,63 L 812,62 L 810,62 L 809,61 L 807,61 L 806,60 L 803,60 L 802,59 L 795,59 L 794,58 Z" fill="red" stroke="black" stroke-width="1"/><path d="M 802,57 Z" fill="red" stroke="black" stroke-width="1"/><path d="M 793,56 L 794,56 Z" fill="red" stroke="black" stroke-width="1"/><path d="M 789,56 Z" fill="red" stroke="black" stroke-width="1"/><path d="M 771,39 Z" fill="red" stroke="black" stroke-width="1"/><path d="M 566,35 Z" fill="red" stroke="black" stroke-width="1"/></svg>